<svg width="500" height="500" viewBox="0 0 500 500" fill="none" xmlns="http://www.w3.org/2000/svg">
<path d="M128.375 387.8C110.392 379.35 94.6833 368.083 81.25 354C68.0333 339.7 57.7417 323.667 50.375 305.9C43.225 287.917 39.65 269.283 39.65 250C39.65 230.717 43.225 212.408 50.375 195.075C57.525 177.525 67.6 161.925 80.6 148.275C93.6 134.408 108.875 123.358 126.425 115.125L132.6 135.275C122.2 140.908 112.667 147.842 104 156.075C95.55 164.308 88.1833 173.408 81.9 183.375C75.8333 193.342 71.0667 204.067 67.6 215.55C64.35 227.033 62.725 238.842 62.725 250.975C62.725 263.108 64.35 274.917 67.6 286.4C71.0667 297.883 75.9417 308.825 82.225 319.225C88.5083 329.408 95.9833 338.725 104.65 347.175C113.533 355.408 123.5 362.45 134.55 368.3L128.375 387.8ZM368.225 387.8L362.05 368.3C373.1 362.45 382.958 355.408 391.625 347.175C400.508 338.725 408.092 329.408 414.375 319.225C420.658 308.825 425.425 297.883 428.675 286.4C432.142 274.917 433.875 263.108 433.875 250.975C433.875 238.842 432.142 227.033 428.675 215.55C425.425 204.067 420.658 193.342 414.375 183.375C408.308 173.408 400.942 164.308 392.275 156.075C383.825 147.842 374.4 140.908 364 135.275L370.175 115.125C387.725 123.358 403 134.408 416 148.275C429 161.925 439.075 177.525 446.225 195.075C453.375 212.408 456.95 230.717 456.95 250C456.95 269.283 453.267 287.917 445.9 305.9C438.75 323.667 428.458 339.7 415.025 354C401.808 368.083 386.208 379.35 368.225 387.8Z" fill="url(#paint0_radial_1_2)"/>
<defs>
<radialGradient id="paint0_radial_1_2" cx="0" cy="0" r="1" gradientUnits="userSpaceOnUse" gradientTransform="translate(41 140) rotate(33.518) scale(461.79 661.59)">
<stop stop-color="#A675D7" stop-opacity="0.66"/>
<stop offset="1" stop-color="#923EE5"/>
</radialGradient>
</defs>
</svg>
